<svg width="5084" height="3218" viewBox="0 0 5084 3218" fill="none" xmlns="http://www.w3.org/2000/svg">
<g clip-path="url(#clip0_53_179)">
<path d="M5083.99 304.223V2914.07C5083.99 3081.99 4947.7 3218.29 4779.77 3218.29H304.223C136.298 3218.29 0 3081.99 0 2914.07V304.223C0 136.298 136.298 0 304.223 0H4779.92C4840.01 0 4896.19 17.4702 4943.18 47.742C5027.82 101.508 5083.99 196.39 5083.99 304.223Z" fill="url(#paint0_linear_53_179)"/>
<path d="M5084 304.223V2285.89C4605.82 2467.22 4066.81 2406.08 3935.93 2175.8C3839.99 2006.97 4035.63 1875.34 3981.26 1563.89C3955.36 1416.3 3887.43 1308.46 3790.6 1206.65C3660.92 1069.75 3479.14 943.996 3278.69 747.908C3149.77 621.851 2833.8 312.808 2661.5 0H4779.77C4839.86 0 4896.04 17.4703 4943.18 47.8926C5027.97 101.508 5084 196.239 5084 304.223Z" fill="url(#paint1_linear_53_179)"/>
<path d="M5084 991.136V2914.07C5084 3081.99 4947.85 3218.14 4779.93 3218.14H304.229C136.304 3218.14 0.156738 3081.99 0.156738 2914.07V1437.53C87.8092 1350.78 190.372 1269.61 309.802 1201.23C673.966 992.341 1025.93 1006.35 1714.95 1042.64C2545.09 1086.32 2603.53 1228.49 3188.03 1246.56C3428.54 1254.09 3624.33 1236.32 3790.6 1206.65C4351 1105.29 4573 864.175 5023.76 974.569C5043.79 979.539 5063.82 984.961 5084 991.136Z" fill="url(#paint2_linear_53_179)"/>
<path d="M1566.15 0C1483.31 808.602 820.198 1445.36 0 1487.08V304.223C0 136.298 136.298 0 304.223 0H1566.15Z" fill="url(#paint3_linear_53_179)"/>
<path opacity="0.33" d="M3773.87 3218.14H1635.42L2559.24 2294.33C2639.21 2214.5 2769.93 2214.5 2849.91 2294.33L3773.87 3218.14Z" fill="url(#paint4_linear_53_179)"/>
<path opacity="0.27" d="M5083.99 2878.38V2913.92C5083.99 3081.84 4947.7 3218.14 4779.77 3218.14H304.223C136.298 3218.14 0 3081.84 0 2913.92V1717.21C84.3392 1672.33 181.781 1638.14 290.97 1626.09C543.988 1598.53 742.486 1703.95 975.623 1831.52C1422.77 2076.25 1493.1 2269.78 1745.97 2430.62C2232.43 2740.12 2632.13 2444.33 3457.75 2464.81C4079.76 2480.48 4740.31 2670.24 5083.99 2878.38Z" fill="url(#paint5_linear_53_179)"/>
<path opacity="0.53" d="M5083.99 304.223V2914.07C5083.99 3081.99 4947.7 3218.29 4779.77 3218.29H304.223C136.298 3218.29 0 3081.99 0 2914.07V304.223C0 136.298 136.298 0 304.223 0H4779.92C4840.01 0 4896.19 17.4702 4943.18 47.742C5027.82 101.508 5083.99 196.39 5083.99 304.223Z" fill="url(#paint6_linear_53_179)"/>
<path d="M4848.03 2830.4C4840.56 2812.9 4820.44 2804.81 4803.11 2812.35L4693.29 2860.11C4694.22 2871.63 4692.47 2882.67 4689.18 2891.09C4671.04 2937.16 4625.82 2933.04 4605.29 2924.78L4477.5 2875.06L4477.54 2874.94C4473.92 2873.73 4470.77 2871.2 4469.14 2867.37C4466.15 2860.36 4469.36 2852.23 4476.28 2849.21C4479.46 2847.82 4482.82 2847.88 4485.86 2848.9L4485.9 2848.76L4486.62 2849.05C4486.71 2849.07 4486.79 2849.11 4486.87 2849.14L4614.55 2898.81C4618.26 2900.3 4651.32 2912.54 4663.78 2880.86C4664.63 2878.71 4665.36 2875.59 4665.84 2872.05L4665.87 2872.02C4668.84 2853.35 4652.02 2841.54 4641.99 2837.52L4478.85 2772.86C4426.74 2750.4 4303.71 2805.06 4303.71 2805.06L4349.79 2919.29L4400.67 2897.18L4579.93 2969.27C4589.79 2973.24 4600.12 2973.49 4609.63 2970.91C4609.81 2970.87 4609.96 2970.86 4610.15 2970.82C4610.33 2970.76 4610.46 2970.7 4610.65 2970.64C4612.65 2970.19 4614.63 2969.6 4616.59 2968.74L4830.14 2875.8C4847.5 2868.25 4855.5 2847.95 4848.03 2830.4Z" fill="white"/>
<path fill-rule="evenodd" clip-rule="evenodd" d="M4662.49 2664.24C4662.49 2711.31 4624.33 2749.47 4577.27 2749.47C4530.2 2749.47 4492.04 2711.31 4492.04 2664.24C4492.04 2617.17 4530.2 2579.02 4577.27 2579.02C4624.33 2579.02 4662.49 2617.17 4662.49 2664.24ZM4649.71 2664.24C4649.71 2704.25 4617.27 2736.69 4577.27 2736.69C4537.26 2736.69 4504.82 2704.25 4504.82 2664.24C4504.82 2624.23 4537.26 2591.8 4577.27 2591.8C4617.27 2591.8 4649.71 2624.23 4649.71 2664.24Z" fill="white"/>
<path d="M4599.64 2678.53C4599.64 2656.62 4567.29 2660.9 4567.29 2647.96C4567.29 2641.2 4574.89 2640.84 4577.27 2640.84C4582.98 2640.84 4588.49 2642.37 4592.69 2644.35C4594.01 2644.97 4595.53 2644.05 4595.53 2642.59V2636.21C4595.53 2634.07 4594.73 2632.81 4593.45 2632.3C4590.57 2631.19 4586.43 2630.37 4580.31 2630.17V2623.15C4580.31 2622.31 4579.63 2621.63 4578.79 2621.63H4575.75C4574.91 2621.63 4574.23 2622.31 4574.23 2623.15V2630.28C4564.73 2631.2 4554.89 2636.56 4554.89 2649.01C4554.89 2671.72 4587.24 2667.22 4587.24 2679.18C4587.24 2682.94 4584.83 2686.18 4577.27 2686.18C4569.66 2686.18 4562.66 2683.52 4558.79 2681.54C4557.49 2680.88 4555.96 2681.84 4555.96 2683.3V2690.56C4555.96 2691.95 4556.79 2693.19 4558.08 2693.73C4562.66 2695.68 4568.82 2697.15 4574.22 2697.58V2705.34C4574.22 2706.18 4574.91 2706.86 4575.75 2706.86H4578.79C4579.63 2706.86 4580.31 2706.18 4580.31 2705.34V2697.6C4594.5 2696.42 4599.64 2686.91 4599.64 2678.53Z" fill="white"/>
<path fill-rule="evenodd" clip-rule="evenodd" d="M4585.05 2234.38C4585.05 2233.62 4586.54 2234.12 4586.86 2234.86L4644.59 2358.65C4646.89 2363.07 4649.58 2368.32 4652.53 2374.12L4606.26 2527.6L4600.89 2523.99L4593.09 2381.24H4622.83V2354.73H4591.63L4585.05 2234.38ZM4841.19 2588.13C4851.43 2607.61 4858 2629.1 4860.78 2653.69L4744.39 2656.67L4841.19 2588.13ZM4791.59 2527.47C4810.02 2543.64 4824.94 2560.58 4836.24 2579.36L4724.07 2611.9L4721.89 2609.03L4791.59 2527.47ZM4722.67 2478.25C4744.34 2491.53 4763.59 2504.58 4780.34 2518.04L4689.46 2580.25L4688.01 2579.37L4722.67 2478.25ZM4663.02 2394.63C4679.83 2427.2 4700.37 2464.88 4711.68 2471.61L4712.56 2472.13L4648.2 2556.28L4646.35 2554.99L4663.02 2394.63ZM4569.4 2234.38L4562.81 2354.73H4532.16V2381.24H4561.36L4553.55 2523.99L4548.19 2527.6L4501.92 2374.12C4504.87 2368.32 4507.55 2363.07 4509.85 2358.65L4567.59 2234.86C4567.91 2234.12 4569.4 2233.62 4569.4 2234.38ZM4313.26 2588.13C4303.01 2607.61 4296.44 2629.1 4293.67 2653.69L4410.06 2656.67L4313.26 2588.13ZM4362.86 2527.47C4344.43 2543.64 4329.51 2560.58 4318.21 2579.36L4430.37 2611.9L4432.56 2609.03L4362.86 2527.47ZM4431.78 2478.25C4410.11 2491.53 4390.86 2504.58 4374.11 2518.04L4464.99 2580.25L4466.43 2579.37L4431.78 2478.25ZM4491.43 2394.63C4474.61 2427.2 4454.08 2464.88 4442.77 2471.61L4441.89 2472.13L4506.25 2556.28L4508.1 2554.99L4491.43 2394.63Z" fill="white"/>
<path d="M219.425 515.497C218.475 515.497 218 514.902 218 513.712L218.712 268.428C218.712 267.476 219.187 267 220.137 267H263.598C264.548 267 265.379 267.476 266.091 268.428L298.508 315.557L330.926 268.428C331.638 267.476 332.469 267 333.419 267H377.236C378.186 267 378.661 267.476 378.661 268.428L379.373 513.712C379.373 514.902 378.898 515.497 377.948 515.497H337.694C336.744 515.497 336.269 514.902 336.269 513.712L335.913 331.624L298.508 385.893L261.46 331.624L261.104 513.712C261.104 514.902 260.629 515.497 259.679 515.497H219.425Z" fill="white"/>
<path d="M397.224 513.712L441.396 268.428C441.634 267.476 442.228 267 443.178 267H494.831C495.781 267 496.375 267.476 496.612 268.428L539.004 513.712C539.242 514.902 538.767 515.497 537.579 515.497H498.037C497.087 515.497 496.494 514.902 496.256 513.712L492.338 487.648H443.89L439.972 513.712C439.734 514.902 439.14 515.497 438.19 515.497H398.649C397.699 515.497 397.224 514.902 397.224 513.712ZM451.015 449.445H485.213L470.608 349.118L468.47 335.908L467.045 349.118L451.015 449.445Z" fill="white"/>
<path d="M562.785 515.497C561.835 515.497 561.36 514.902 561.36 513.712L562.073 268.428C562.073 267.476 562.548 267 563.498 267H635.457C648.281 267 660.037 270.213 670.724 276.64C681.648 282.829 690.316 291.278 696.729 301.99C703.141 312.463 706.347 324.364 706.347 337.693C706.347 346.5 705.041 354.474 702.428 361.615C699.816 368.517 696.729 374.468 693.166 379.466C689.604 384.227 686.398 387.797 683.548 390.177C696.372 404.459 702.785 421.24 702.785 440.519L703.141 513.712C703.141 514.902 702.547 515.497 701.36 515.497H661.105C660.155 515.497 659.68 515.14 659.68 514.426V440.519C659.68 431.951 656.593 424.572 650.418 418.383C644.481 411.957 637.119 408.743 628.332 408.743H604.821L604.465 513.712C604.465 514.902 603.99 515.497 603.04 515.497H562.785ZM604.821 365.899H635.457C642.819 365.899 649.35 363.162 655.049 357.687C660.749 352.213 663.599 345.548 663.599 337.693C663.599 330.076 660.749 323.531 655.049 318.056C649.587 312.582 643.056 309.844 635.457 309.844H604.821V365.899Z" fill="white"/>
<path d="M721.103 513.712L765.275 268.428C765.513 267.476 766.107 267 767.057 267H818.71C819.66 267 820.254 267.476 820.491 268.428L862.883 513.712C863.121 514.902 862.646 515.497 861.458 515.497H821.916C820.966 515.497 820.373 514.902 820.135 513.712L816.217 487.648H767.769L763.851 513.712C763.613 514.902 763.019 515.497 762.069 515.497H722.528C721.578 515.497 721.103 514.902 721.103 513.712ZM774.894 449.445H809.092L794.486 349.118L792.349 335.908L790.924 349.118L774.894 449.445Z" fill="white"/>
<path d="M888.445 515.497C886.546 515.497 885.596 514.664 885.596 512.998L885.239 269.856C885.239 267.952 886.189 267 888.089 267H920.15L980.353 407.672L978.572 269.856C978.572 267.952 979.641 267 981.778 267H1017.05C1018.47 267 1019.18 267.952 1019.18 269.856L1019.54 513.355C1019.54 514.783 1018.95 515.497 1017.76 515.497H986.409L924.781 384.108L927.275 512.641C927.275 514.545 926.206 515.497 924.069 515.497H888.445Z" fill="white"/>
<path d="M1038.37 513.712L1082.54 268.428C1082.78 267.476 1083.38 267 1084.33 267H1135.98C1136.93 267 1137.52 267.476 1137.76 268.428L1180.15 513.712C1180.39 514.902 1179.91 515.497 1178.73 515.497H1139.19C1138.24 515.497 1137.64 514.902 1137.4 513.712L1133.49 487.648H1085.04L1081.12 513.712C1080.88 514.902 1080.29 515.497 1079.34 515.497H1039.8C1038.85 515.497 1038.37 514.902 1038.37 513.712ZM1092.16 449.445H1126.36L1111.76 349.118L1109.62 335.908L1108.19 349.118L1092.16 449.445Z" fill="white"/>
<path d="M1221.09 515.497C1220.14 515.497 1219.66 514.902 1219.66 513.712V310.201H1173.35C1172.16 310.201 1171.57 309.606 1171.57 308.416L1171.93 268.428C1171.93 267.476 1172.4 267 1173.35 267H1308.72C1309.91 267 1310.5 267.476 1310.5 268.428V308.416C1310.5 309.606 1310.02 310.201 1309.07 310.201H1262.41L1262.76 513.712C1262.76 514.902 1262.29 515.497 1261.34 515.497H1221.09Z" fill="white"/>
<path d="M1329.52 515.497C1328.57 515.497 1328.09 514.902 1328.09 513.712L1328.45 268.428C1328.45 267.476 1329.04 267 1330.23 267H1369.77C1370.96 267 1371.55 267.476 1371.55 268.428L1371.2 365.542H1424.63V268.428C1424.63 267.476 1425.11 267 1426.06 267H1465.6C1466.79 267 1467.38 267.476 1467.38 268.428L1468.09 513.712C1468.09 514.902 1467.5 515.497 1466.31 515.497H1426.41C1425.23 515.497 1424.63 514.902 1424.63 513.712V408.743H1371.2V513.712C1371.2 514.902 1370.72 515.497 1369.77 515.497H1329.52Z" fill="white"/>
<path d="M1485.05 513.712L1529.23 268.428C1529.46 267.476 1530.06 267 1531.01 267H1582.66C1583.61 267 1584.2 267.476 1584.44 268.428L1626.83 513.712C1627.07 514.902 1626.6 515.497 1625.41 515.497H1585.87C1584.92 515.497 1584.32 514.902 1584.09 513.712L1580.17 487.648H1531.72L1527.8 513.712C1527.56 514.902 1526.97 515.497 1526.02 515.497H1486.48C1485.53 515.497 1485.05 514.902 1485.05 513.712ZM1538.84 449.445H1573.04L1558.44 349.118L1556.3 335.908L1554.87 349.118L1538.84 449.445Z" fill="white"/>
<path d="M1130.09 742.32C1129.53 742.32 1129.25 742.04 1129.25 741.48L1129.42 626.052C1129.42 625.604 1129.64 625.38 1130.09 625.38H1148.86C1149.31 625.38 1149.53 625.604 1149.53 626.052L1149.7 741.48C1149.7 742.04 1149.48 742.32 1149.03 742.32H1130.09Z" fill="white"/>
<path d="M1165.95 742.32C1165.06 742.32 1164.61 741.928 1164.61 741.144L1164.45 626.724C1164.45 625.828 1164.89 625.38 1165.79 625.38H1180.87L1209.2 691.579L1208.37 626.724C1208.37 625.828 1208.87 625.38 1209.88 625.38H1226.47C1227.14 625.38 1227.48 625.828 1227.48 626.724L1227.65 741.312C1227.65 741.984 1227.37 742.32 1226.81 742.32H1212.05L1183.05 680.49L1184.23 740.976C1184.23 741.872 1183.72 742.32 1182.72 742.32H1165.95Z" fill="white"/>
<path d="M1260.98 742.32C1260.54 742.32 1260.26 742.04 1260.14 741.48L1237.01 626.052C1236.9 625.604 1237.12 625.38 1237.68 625.38H1256.62C1257.07 625.38 1257.35 625.604 1257.46 626.052L1271.21 703.004L1284.62 626.052C1284.73 625.604 1285.01 625.38 1285.46 625.38H1304.23C1304.79 625.38 1305.02 625.604 1304.9 626.052L1282.11 741.48C1281.99 742.04 1281.71 742.32 1281.27 742.32H1260.98Z" fill="white"/>
<path d="M1342.47 744C1336.43 744 1330.9 742.488 1325.87 739.464C1320.96 736.327 1316.99 732.239 1313.97 727.198C1310.95 722.046 1309.44 716.389 1309.44 710.229L1309.61 656.967C1309.61 650.807 1311.07 645.206 1313.97 640.166C1316.99 635.125 1321.01 631.093 1326.04 628.068C1331.07 625.044 1336.55 623.532 1342.47 623.532C1348.5 623.532 1353.98 625.044 1358.9 628.068C1363.82 631.093 1367.73 635.125 1370.63 640.166C1373.65 645.206 1375.16 650.807 1375.16 656.967L1375.33 710.229C1375.33 716.389 1373.82 722.046 1370.8 727.198C1367.89 732.239 1363.93 736.327 1358.9 739.464C1353.98 742.488 1348.5 744 1342.47 744ZM1342.47 723.67C1345.82 723.67 1348.73 722.326 1351.19 719.638C1353.76 716.837 1355.04 713.701 1355.04 710.229L1354.87 656.967C1354.87 653.271 1353.7 650.135 1351.35 647.558C1349.01 644.982 1346.05 643.694 1342.47 643.694C1339.01 643.694 1336.04 644.982 1333.58 647.558C1331.13 650.023 1329.9 653.159 1329.9 656.967V710.229C1329.9 713.925 1331.13 717.117 1333.58 719.806C1336.04 722.382 1339.01 723.67 1342.47 723.67Z" fill="white"/>
<path d="M1388.91 742.32C1388.35 742.32 1388.07 742.04 1388.07 741.48L1388.24 626.052C1388.24 625.604 1388.46 625.38 1388.91 625.38H1407.69C1408.13 625.38 1408.36 625.604 1408.36 626.052L1408.52 741.48C1408.52 742.04 1408.3 742.32 1407.85 742.32H1388.91Z" fill="white"/>
<path d="M1454.12 744C1447.97 744 1442.38 742.488 1437.35 739.464C1432.43 736.327 1428.52 732.183 1425.62 727.03C1422.71 721.878 1421.26 716.109 1421.26 709.725L1421.43 657.303C1421.43 651.143 1422.82 645.542 1425.62 640.502C1428.52 635.349 1432.43 631.261 1437.35 628.236C1442.38 625.1 1447.97 623.532 1454.12 623.532C1460.26 623.532 1465.79 625.044 1470.71 628.068C1475.63 631.093 1479.54 635.181 1482.45 640.334C1485.35 645.374 1486.81 651.031 1486.81 657.303V665.032C1486.81 665.48 1486.58 665.704 1486.13 665.704H1467.36C1466.91 665.704 1466.69 665.48 1466.69 665.032V657.303C1466.69 653.607 1465.46 650.415 1463 647.726C1460.65 645.038 1457.69 643.694 1454.12 643.694C1450.09 643.694 1447.02 645.094 1444.9 647.894C1442.77 650.583 1441.71 653.719 1441.71 657.303V709.725C1441.71 713.869 1442.88 717.229 1445.23 719.806C1447.69 722.382 1450.65 723.67 1454.12 723.67C1457.69 723.67 1460.65 722.27 1463 719.47C1465.46 716.557 1466.69 713.309 1466.69 709.725V701.996C1466.69 701.548 1466.91 701.324 1467.36 701.324H1486.3C1486.75 701.324 1486.97 701.548 1486.97 701.996V709.725C1486.97 716.109 1485.46 721.878 1482.45 727.03C1479.54 732.183 1475.63 736.327 1470.71 739.464C1465.79 742.488 1460.26 744 1454.12 744Z" fill="white"/>
<path d="M1499.9 742.32C1499.45 742.32 1499.23 742.04 1499.23 741.48L1499.4 626.052C1499.4 625.604 1499.62 625.38 1500.07 625.38H1553.88C1554.33 625.38 1554.55 625.66 1554.55 626.22V645.038C1554.55 645.486 1554.33 645.71 1553.88 645.71H1519.52V671.921H1553.88C1554.33 671.921 1554.55 672.145 1554.55 672.593L1554.72 691.579C1554.72 692.027 1554.5 692.251 1554.05 692.251H1519.52V721.654H1554.05C1554.5 721.654 1554.72 721.934 1554.72 722.494V741.648C1554.72 742.096 1554.5 742.32 1554.05 742.32H1499.9Z" fill="white"/>
<path d="M1597.14 744C1591.11 744 1585.58 742.488 1580.55 739.464C1575.63 736.327 1571.66 732.239 1568.64 727.198C1565.74 722.046 1564.29 716.389 1564.29 710.229V702.5C1564.29 701.94 1564.57 701.66 1565.12 701.66H1583.9C1584.35 701.66 1584.57 701.94 1584.57 702.5V710.229C1584.57 713.925 1585.8 717.117 1588.26 719.806C1590.72 722.382 1593.68 723.67 1597.14 723.67C1600.61 723.67 1603.57 722.326 1606.03 719.638C1608.49 716.949 1609.72 713.813 1609.72 710.229C1609.72 706.084 1607.03 702.5 1601.67 699.476C1599.88 698.467 1597.09 696.899 1593.29 694.771C1589.49 692.643 1585.91 690.627 1582.56 688.722C1576.41 685.138 1571.83 680.658 1568.81 675.281C1565.91 669.793 1564.45 663.632 1564.45 656.799C1564.45 650.527 1565.96 644.926 1568.98 639.998C1572 634.957 1575.96 630.981 1580.88 628.068C1585.91 625.156 1591.33 623.7 1597.14 623.7C1603.07 623.7 1608.49 625.212 1613.4 628.236C1618.43 631.149 1622.4 635.125 1625.31 640.166C1628.32 645.094 1629.83 650.639 1629.83 656.799V670.577C1629.83 671.025 1629.61 671.249 1629.16 671.249H1610.39C1609.94 671.249 1609.72 671.025 1609.72 670.577L1609.55 656.799C1609.55 652.879 1608.32 649.687 1605.86 647.222C1603.4 644.758 1600.5 643.526 1597.14 643.526C1593.68 643.526 1590.72 644.87 1588.26 647.558C1585.8 650.135 1584.57 653.215 1584.57 656.799C1584.57 660.496 1585.35 663.576 1586.92 666.04C1588.48 668.504 1591.33 670.857 1595.47 673.097C1596.03 673.433 1597.09 674.049 1598.65 674.945C1600.33 675.729 1602.12 676.681 1604.02 677.801C1605.92 678.809 1607.59 679.706 1609.05 680.49C1610.61 681.274 1611.56 681.778 1611.89 682.002C1617.48 685.138 1621.9 689.002 1625.14 693.595C1628.38 698.075 1630 703.62 1630 710.229C1630 716.613 1628.49 722.382 1625.47 727.534C1622.57 732.575 1618.6 736.607 1613.57 739.632C1608.65 742.544 1603.18 744 1597.14 744Z" fill="white"/>
</g>
<defs>
<linearGradient id="paint0_linear_53_179" x1="555.619" y1="3595.53" x2="4528.42" y2="-377.273" gradientUnits="userSpaceOnUse">
<stop stop-color="#1B1464"/>
<stop offset="1" stop-color="#83EFFF"/>
</linearGradient>
<linearGradient id="paint1_linear_53_179" x1="3381.34" y1="1634.29" x2="4960.66" y2="54.9696" gradientUnits="userSpaceOnUse">
<stop stop-color="#83EFFF"/>
<stop offset="1" stop-color="#1B1464"/>
</linearGradient>
<linearGradient id="paint2_linear_53_179" x1="870.487" y1="3910.33" x2="4436.83" y2="343.992" gradientUnits="userSpaceOnUse">
<stop stop-color="#1B1464"/>
<stop offset="1" stop-color="#83EFFF"/>
</linearGradient>
<linearGradient id="paint3_linear_53_179" x1="-176.07" y1="1310.96" x2="1350.5" y2="-215.611" gradientUnits="userSpaceOnUse">
<stop stop-color="#1B1464"/>
<stop offset="1" stop-color="#83EFFF"/>
</linearGradient>
<linearGradient id="paint4_linear_53_179" x1="2170.06" y1="3752.78" x2="3239.24" y2="2683.6" gradientUnits="userSpaceOnUse">
<stop stop-color="#02B6FD"/>
<stop offset="1" stop-color="#83EFFF"/>
</linearGradient>
<linearGradient id="paint5_linear_53_179" x1="940.374" y1="3980.29" x2="3563.15" y2="1357.51" gradientUnits="userSpaceOnUse">
<stop stop-color="#1B1464"/>
<stop offset="1" stop-color="#83EFFF"/>
</linearGradient>
<linearGradient id="paint6_linear_53_179" x1="555.619" y1="3595.53" x2="4528.42" y2="-377.273" gradientUnits="userSpaceOnUse">
<stop stop-color="#02CAFD"/>
<stop offset="1" stop-color="#83F8A6"/>
</linearGradient>
<clipPath id="clip0_53_179">
<rect width="5084" height="3218" fill="white"/>
</clipPath>
</defs>
</svg>
