<svg width="5800" height="2900" viewBox="0 0 5800 2900" fill="none" xmlns="http://www.w3.org/2000/svg">
<path d="M370.429 1488C368.163 1488 367.029 1486.58 367.029 1483.75L368.729 899.8C368.729 897.533 369.863 896.4 372.129 896.4H475.829C478.096 896.4 480.079 897.533 481.779 899.8L559.129 1012L636.479 899.8C638.179 897.533 640.163 896.4 642.429 896.4H746.979C749.246 896.4 750.379 897.533 750.379 899.8L752.079 1483.75C752.079 1486.58 750.946 1488 748.679 1488H652.629C650.363 1488 649.229 1486.58 649.229 1483.75L648.379 1050.25L559.129 1179.45L470.729 1050.25L469.879 1483.75C469.879 1486.58 468.746 1488 466.479 1488H370.429ZM794.672 1483.75L900.072 899.8C900.639 897.533 902.056 896.4 904.322 896.4H1027.57C1029.84 896.4 1031.26 897.533 1031.82 899.8L1132.97 1483.75C1133.54 1486.58 1132.41 1488 1129.57 1488H1035.22C1032.96 1488 1031.54 1486.58 1030.97 1483.75L1021.62 1421.7H906.022L896.672 1483.75C896.106 1486.58 894.689 1488 892.422 1488H798.072C795.806 1488 794.672 1486.58 794.672 1483.75ZM923.022 1330.75H1004.62L969.772 1091.9L964.672 1060.45L961.272 1091.9L923.022 1330.75ZM1189.72 1488C1187.45 1488 1186.32 1486.58 1186.32 1483.75L1188.02 899.8C1188.02 897.533 1189.15 896.4 1191.42 896.4H1363.12C1393.72 896.4 1421.77 904.05 1447.27 919.35C1473.33 934.083 1494.02 954.2 1509.32 979.7C1524.62 1004.63 1532.27 1032.97 1532.27 1064.7C1532.27 1085.67 1529.15 1104.65 1522.92 1121.65C1516.68 1138.08 1509.32 1152.25 1500.82 1164.15C1492.32 1175.48 1484.67 1183.98 1477.87 1189.65C1508.47 1223.65 1523.77 1263.6 1523.77 1309.5L1524.62 1483.75C1524.62 1486.58 1523.2 1488 1520.37 1488H1424.32C1422.05 1488 1420.92 1487.15 1420.92 1485.45V1309.5C1420.92 1289.1 1413.55 1271.53 1398.82 1256.8C1384.65 1241.5 1367.08 1233.85 1346.12 1233.85H1290.02L1289.17 1483.75C1289.17 1486.58 1288.03 1488 1285.77 1488H1189.72ZM1290.02 1131.85H1363.12C1380.68 1131.85 1396.27 1125.33 1409.87 1112.3C1423.47 1099.27 1430.27 1083.4 1430.27 1064.7C1430.27 1046.57 1423.47 1030.98 1409.87 1017.95C1396.83 1004.92 1381.25 998.4 1363.12 998.4H1290.02V1131.85ZM1567.48 1483.75L1672.88 899.8C1673.44 897.533 1674.86 896.4 1677.13 896.4H1800.38C1802.64 896.4 1804.06 897.533 1804.63 899.8L1905.78 1483.75C1906.34 1486.58 1905.21 1488 1902.38 1488H1808.03C1805.76 1488 1804.34 1486.58 1803.78 1483.75L1794.43 1421.7H1678.83L1669.48 1483.75C1668.91 1486.58 1667.49 1488 1665.23 1488H1570.88C1568.61 1488 1567.48 1486.58 1567.48 1483.75ZM1695.83 1330.75H1777.43L1742.58 1091.9L1737.48 1060.45L1734.08 1091.9L1695.83 1330.75ZM1966.77 1488C1962.24 1488 1959.97 1486.02 1959.97 1482.05L1959.12 903.2C1959.12 898.667 1961.39 896.4 1965.92 896.4H2042.42L2186.07 1231.3L2181.82 903.2C2181.82 898.667 2184.37 896.4 2189.47 896.4H2273.62C2277.02 896.4 2278.72 898.667 2278.72 903.2L2279.57 1482.9C2279.57 1486.3 2278.15 1488 2275.32 1488H2200.52L2053.47 1175.2L2059.42 1481.2C2059.42 1485.73 2056.87 1488 2051.77 1488H1966.77ZM2324.51 1483.75L2429.91 899.8C2430.47 897.533 2431.89 896.4 2434.16 896.4H2557.41C2559.67 896.4 2561.09 897.533 2561.66 899.8L2662.81 1483.75C2663.37 1486.58 2662.24 1488 2659.41 1488H2565.06C2562.79 1488 2561.37 1486.58 2560.81 1483.75L2551.46 1421.7H2435.86L2426.51 1483.75C2425.94 1486.58 2424.52 1488 2422.26 1488H2327.91C2325.64 1488 2324.51 1486.58 2324.51 1483.75ZM2452.86 1330.75H2534.46L2499.61 1091.9L2494.51 1060.45L2491.11 1091.9L2452.86 1330.75ZM2760.48 1488C2758.21 1488 2757.08 1486.58 2757.08 1483.75V999.25H2646.58C2643.74 999.25 2642.33 997.833 2642.33 995L2643.18 899.8C2643.18 897.533 2644.31 896.4 2646.58 896.4H2969.58C2972.41 896.4 2973.83 897.533 2973.83 899.8V995C2973.83 997.833 2972.69 999.25 2970.43 999.25H2859.08L2859.93 1483.75C2859.93 1486.58 2858.79 1488 2856.53 1488H2760.48ZM3019.21 1488C3016.94 1488 3015.81 1486.58 3015.81 1483.75L3016.66 899.8C3016.66 897.533 3018.08 896.4 3020.91 896.4H3115.26C3118.09 896.4 3119.51 897.533 3119.51 899.8L3118.66 1131H3246.16V899.8C3246.16 897.533 3247.29 896.4 3249.56 896.4H3343.91C3346.74 896.4 3348.16 897.533 3348.16 899.8L3349.86 1483.75C3349.86 1486.58 3348.44 1488 3345.61 1488H3250.41C3247.58 1488 3246.16 1486.58 3246.16 1483.75V1233.85H3118.66V1483.75C3118.66 1486.58 3117.53 1488 3115.26 1488H3019.21ZM3390.33 1483.75L3495.73 899.8C3496.29 897.533 3497.71 896.4 3499.98 896.4H3623.23C3625.49 896.4 3626.91 897.533 3627.48 899.8L3728.63 1483.75C3729.19 1486.58 3728.06 1488 3725.23 1488H3630.88C3628.61 1488 3627.19 1486.58 3626.63 1483.75L3617.28 1421.7H3501.68L3492.33 1483.75C3491.76 1486.58 3490.34 1488 3488.08 1488H3393.73C3391.46 1488 3390.33 1486.58 3390.33 1483.75ZM3518.68 1330.75H3600.28L3565.43 1091.9L3560.33 1060.45L3556.93 1091.9L3518.68 1330.75Z" fill="url(#paint0_linear_123_2)"/>
<path d="M2543.34 2028C2542.01 2028 2541.34 2027.33 2541.34 2026L2541.74 1751.2C2541.74 1750.13 2542.28 1749.6 2543.34 1749.6H2588.14C2589.21 1749.6 2589.74 1750.13 2589.74 1751.2L2590.14 2026C2590.14 2027.33 2589.61 2028 2588.54 2028H2543.34ZM2628.93 2028C2626.79 2028 2625.73 2027.07 2625.73 2025.2L2625.33 1752.8C2625.33 1750.67 2626.39 1749.6 2628.53 1749.6H2664.53L2732.13 1907.2L2730.13 1752.8C2730.13 1750.67 2731.33 1749.6 2733.73 1749.6H2773.33C2774.93 1749.6 2775.73 1750.67 2775.73 1752.8L2776.13 2025.6C2776.13 2027.2 2775.46 2028 2774.13 2028H2738.93L2669.73 1880.8L2672.53 2024.8C2672.53 2026.93 2671.33 2028 2668.93 2028H2628.93ZM2855.68 2028C2854.61 2028 2853.94 2027.33 2853.67 2026L2798.48 1751.2C2798.21 1750.13 2798.74 1749.6 2800.08 1749.6H2845.28C2846.34 1749.6 2847.01 1750.13 2847.28 1751.2L2880.08 1934.4L2912.08 1751.2C2912.34 1750.13 2913.01 1749.6 2914.08 1749.6H2958.88C2960.21 1749.6 2960.74 1750.13 2960.48 1751.2L2906.08 2026C2905.81 2027.33 2905.14 2028 2904.08 2028H2855.68ZM3050.11 2032C3035.71 2032 3022.51 2028.4 3010.51 2021.2C2998.78 2013.73 2989.31 2004 2982.11 1992C2974.91 1979.73 2971.31 1966.27 2971.31 1951.6L2971.71 1824.8C2971.71 1810.13 2975.18 1796.8 2982.11 1784.8C2989.31 1772.8 2998.91 1763.2 3010.91 1756C3022.91 1748.8 3035.98 1745.2 3050.11 1745.2C3064.51 1745.2 3077.58 1748.8 3089.31 1756C3101.04 1763.2 3110.38 1772.8 3117.31 1784.8C3124.51 1796.8 3128.11 1810.13 3128.11 1824.8L3128.51 1951.6C3128.51 1966.27 3124.91 1979.73 3117.71 1992C3110.78 2004 3101.31 2013.73 3089.31 2021.2C3077.58 2028.4 3064.51 2032 3050.11 2032ZM3050.11 1983.6C3058.11 1983.6 3065.04 1980.4 3070.91 1974C3077.04 1967.33 3080.11 1959.87 3080.11 1951.6L3079.71 1824.8C3079.71 1816 3076.91 1808.53 3071.31 1802.4C3065.71 1796.27 3058.64 1793.2 3050.11 1793.2C3041.84 1793.2 3034.78 1796.27 3028.91 1802.4C3023.04 1808.27 3020.11 1815.73 3020.11 1824.8V1951.6C3020.11 1960.4 3023.04 1968 3028.91 1974.4C3034.78 1980.53 3041.84 1983.6 3050.11 1983.6ZM3160.92 2028C3159.59 2028 3158.92 2027.33 3158.92 2026L3159.32 1751.2C3159.32 1750.13 3159.86 1749.6 3160.92 1749.6H3205.72C3206.79 1749.6 3207.32 1750.13 3207.32 1751.2L3207.72 2026C3207.72 2027.33 3207.19 2028 3206.12 2028H3160.92ZM3316.51 2032C3301.84 2032 3288.51 2028.4 3276.51 2021.2C3264.77 2013.73 3255.44 2003.87 3248.51 1991.6C3241.57 1979.33 3238.11 1965.6 3238.11 1950.4L3238.51 1825.6C3238.51 1810.93 3241.84 1797.6 3248.51 1785.6C3255.44 1773.33 3264.77 1763.6 3276.51 1756.4C3288.51 1748.93 3301.84 1745.2 3316.51 1745.2C3331.17 1745.2 3344.37 1748.8 3356.11 1756C3367.84 1763.2 3377.17 1772.93 3384.11 1785.2C3391.04 1797.2 3394.51 1810.67 3394.51 1825.6V1844C3394.51 1845.07 3393.97 1845.6 3392.91 1845.6H3348.11C3347.04 1845.6 3346.51 1845.07 3346.51 1844V1825.6C3346.51 1816.8 3343.57 1809.2 3337.71 1802.8C3332.11 1796.4 3325.04 1793.2 3316.51 1793.2C3306.91 1793.2 3299.57 1796.53 3294.51 1803.2C3289.44 1809.6 3286.91 1817.07 3286.91 1825.6V1950.4C3286.91 1960.27 3289.71 1968.27 3295.31 1974.4C3301.17 1980.53 3308.24 1983.6 3316.51 1983.6C3325.04 1983.6 3332.11 1980.27 3337.71 1973.6C3343.57 1966.67 3346.51 1958.93 3346.51 1950.4V1932C3346.51 1930.93 3347.04 1930.4 3348.11 1930.4H3393.31C3394.37 1930.4 3394.91 1930.93 3394.91 1932V1950.4C3394.91 1965.6 3391.31 1979.33 3384.11 1991.6C3377.17 2003.87 3367.84 2013.73 3356.11 2021.2C3344.37 2028.4 3331.17 2032 3316.51 2032ZM3425.76 2028C3424.69 2028 3424.16 2027.33 3424.16 2026L3424.56 1751.2C3424.56 1750.13 3425.09 1749.6 3426.16 1749.6H3554.56C3555.62 1749.6 3556.16 1750.27 3556.16 1751.6V1796.4C3556.16 1797.47 3555.62 1798 3554.56 1798H3472.56V1860.4H3554.56C3555.62 1860.4 3556.16 1860.93 3556.16 1862L3556.56 1907.2C3556.56 1908.27 3556.02 1908.8 3554.96 1908.8H3472.56V1978.8H3554.96C3556.02 1978.8 3556.56 1979.47 3556.56 1980.8V2026.4C3556.56 2027.47 3556.02 2028 3554.96 2028H3425.76ZM3657.78 2032C3643.38 2032 3630.18 2028.4 3618.18 2021.2C3606.45 2013.73 3596.98 2004 3589.78 1992C3582.85 1979.73 3579.38 1966.27 3579.38 1951.6V1933.2C3579.38 1931.87 3580.05 1931.2 3581.38 1931.2H3626.18C3627.25 1931.2 3627.78 1931.87 3627.78 1933.2V1951.6C3627.78 1960.4 3630.71 1968 3636.58 1974.4C3642.45 1980.53 3649.51 1983.6 3657.78 1983.6C3666.05 1983.6 3673.11 1980.4 3678.98 1974C3684.85 1967.6 3687.78 1960.13 3687.78 1951.6C3687.78 1941.73 3681.38 1933.2 3668.58 1926C3664.31 1923.6 3657.65 1919.87 3648.58 1914.8C3639.51 1909.73 3630.98 1904.93 3622.98 1900.4C3608.31 1891.87 3597.38 1881.2 3590.18 1868.4C3583.25 1855.33 3579.78 1840.67 3579.78 1824.4C3579.78 1809.47 3583.38 1796.13 3590.58 1784.4C3597.78 1772.4 3607.25 1762.93 3618.98 1756C3630.98 1749.07 3643.91 1745.6 3657.78 1745.6C3671.91 1745.6 3684.85 1749.2 3696.58 1756.4C3708.58 1763.33 3718.05 1772.8 3724.98 1784.8C3732.18 1796.53 3735.78 1809.73 3735.78 1824.4V1857.2C3735.78 1858.27 3735.25 1858.8 3734.18 1858.8H3689.38C3688.31 1858.8 3687.78 1858.27 3687.78 1857.2L3687.38 1824.4C3687.38 1815.07 3684.45 1807.47 3678.58 1801.6C3672.71 1795.73 3665.78 1792.8 3657.78 1792.8C3649.51 1792.8 3642.45 1796 3636.58 1802.4C3630.71 1808.53 3627.78 1815.87 3627.78 1824.4C3627.78 1833.2 3629.65 1840.53 3633.38 1846.4C3637.11 1852.27 3643.91 1857.87 3653.78 1863.2C3655.11 1864 3657.65 1865.47 3661.38 1867.6C3665.38 1869.47 3669.65 1871.73 3674.18 1874.4C3678.71 1876.8 3682.71 1878.93 3686.18 1880.8C3689.91 1882.67 3692.18 1883.87 3692.98 1884.4C3706.31 1891.87 3716.85 1901.07 3724.58 1912C3732.31 1922.67 3736.18 1935.87 3736.18 1951.6C3736.18 1966.8 3732.58 1980.53 3725.38 1992.8C3718.45 2004.8 3708.98 2014.4 3696.98 2021.6C3685.25 2028.53 3672.18 2032 3657.78 2032Z" fill="#09457D"/>
<path d="M4816.94 1979.03L4759.86 1853.49L4971.05 1755.51C5005.39 1739.6 5045.96 1754.8 5061.68 1789.47C5077.43 1824.13 5062.39 1865.11 5028.08 1881.02L4816.94 1979.03Z" fill="#172854"/>
<path d="M4941.58 1991.61L4884.5 1866.04L5095.71 1768.06C5130.02 1752.15 5170.6 1767.35 5186.34 1802.02C5202.09 1836.68 5187.03 1877.69 5152.74 1893.6L4941.58 1991.61Z" fill="#172854"/>
<path d="M4838.68 1971.76C4846.09 1974.71 4912.16 1999.21 4937.07 1935.87C4938.76 1931.57 4940.24 1925.34 4941.2 1918.23L4996.04 1894.42C4997.9 1917.41 4994.4 1939.47 4987.81 1956.31C4951.56 2048.39 4861.18 2040.19 4820.14 2023.65L4564.72 1924.27L4581.5 1871.67L4838.68 1971.76Z" fill="#172854"/>
<path d="M4583.94 1923.43C4570.05 1929.5 4554 1922.96 4548.04 1908.99C4542.05 1894.97 4548.48 1878.73 4562.31 1872.69C4576.2 1866.62 4592.28 1873.12 4598.24 1887.07C4604.2 1901.12 4597.8 1917.3 4583.94 1923.43Z" fill="#172854"/>
<path d="M5305.32 1835.07C5290.39 1800.07 5250.18 1783.92 5215.54 1798.98L4996.04 1894.45C4997.9 1917.47 4994.4 1939.53 4987.81 1956.37C4951.56 2048.45 4861.18 2040.22 4820.14 2023.7L4564.72 1924.33L4564.8 1924.08C4557.56 1921.68 4551.27 1916.62 4548.01 1908.96C4542.03 1894.94 4548.45 1878.7 4562.29 1872.66C4568.63 1869.87 4575.35 1870.01 4581.42 1872.03L4581.5 1871.76L4582.95 1872.33C4583.12 1872.38 4583.28 1872.47 4583.45 1872.52L4838.65 1971.79C4846.06 1974.77 4912.14 1999.24 4937.04 1935.92C4938.74 1931.63 4940.21 1925.39 4941.17 1918.31L4941.23 1918.26C4947.16 1880.94 4913.53 1857.32 4893.49 1849.28L4567.42 1720.05C4463.26 1675.16 4217.35 1784.41 4217.35 1784.41L4309.46 2012.74L4411.16 1968.53L4769.46 2112.64C4789.17 2120.56 4809.81 2121.06 4828.81 2115.92C4829.16 2115.83 4829.46 2115.81 4829.85 2115.73C4830.2 2115.62 4830.48 2115.48 4830.86 2115.37C4834.85 2114.47 4838.81 2113.29 4842.72 2111.57L5269.56 1925.8C5304.25 1910.71 5320.25 1870.14 5305.32 1835.07Z" fill="#09457D"/>
<path d="M4764.13 1673.3C4858.21 1673.3 4934.47 1597.03 4934.47 1502.95C4934.47 1408.87 4858.21 1332.61 4764.13 1332.61C4670.05 1332.61 4593.78 1408.87 4593.78 1502.95C4593.78 1597.03 4670.05 1673.3 4764.13 1673.3Z" fill="url(#paint1_linear_123_2)"/>
<path d="M4764.13 1647.75C4844.09 1647.75 4908.92 1582.92 4908.92 1502.95C4908.92 1422.99 4844.09 1358.16 4764.13 1358.16C4684.16 1358.16 4619.33 1422.99 4619.33 1502.95C4619.33 1582.92 4684.16 1647.75 4764.13 1647.75Z" fill="#F5BE00"/>
<path d="M4808.84 1531.5C4808.84 1487.72 4744.2 1496.27 4744.2 1470.4C4744.2 1456.9 4759.38 1456.18 4764.13 1456.18C4775.54 1456.18 4786.55 1459.24 4794.95 1463.19C4797.6 1464.43 4800.64 1462.59 4800.64 1459.67V1446.93C4800.64 1442.65 4799.03 1440.12 4796.47 1439.12C4790.71 1436.88 4782.45 1435.24 4770.22 1434.84V1420.82C4770.22 1419.14 4768.85 1417.78 4767.18 1417.78H4761.09C4759.42 1417.78 4758.05 1419.14 4758.05 1420.82V1435.07C4739.08 1436.91 4719.41 1447.62 4719.41 1472.51C4719.41 1517.9 4784.06 1508.9 4784.06 1532.81C4784.06 1540.32 4779.25 1546.79 4764.13 1546.79C4748.91 1546.79 4734.94 1541.48 4727.2 1537.52C4724.6 1536.2 4721.53 1538.12 4721.53 1541.05V1555.56C4721.53 1558.34 4723.2 1560.81 4725.77 1561.89C4734.94 1565.79 4747.24 1568.73 4758.04 1569.59V1585.09C4758.04 1586.77 4759.41 1588.13 4761.09 1588.13H4767.17C4768.84 1588.13 4770.21 1586.77 4770.21 1585.09V1569.64C4798.58 1567.27 4808.84 1548.27 4808.84 1531.5Z" fill="#FEE119"/>
<path fill-rule="evenodd" clip-rule="evenodd" d="M4779.68 643.756C4779.68 642.24 4782.66 643.235 4783.29 644.712L4898.69 892.149C4903.3 900.972 4908.66 911.478 4914.55 923.067L4822.08 1229.84L4811.35 1222.61L4795.75 937.305H4855.19V884.312H4792.84L4779.68 643.756ZM5291.64 1350.83C5312.12 1389.75 5325.25 1432.71 5330.8 1481.86L5098.16 1487.82L5291.64 1350.83ZM5192.51 1229.58C5229.34 1261.9 5259.16 1295.76 5281.75 1333.29L5057.55 1398.34L5053.19 1392.6L5192.51 1229.58ZM5054.74 1131.19C5098.07 1157.73 5136.54 1183.83 5170.02 1210.73L4988.37 1335.07L4985.48 1333.3L5054.74 1131.19ZM4935.53 964.067C4969.13 1029.15 5010.18 1104.47 5032.78 1117.93L5034.54 1118.97L4905.9 1287.15L4902.21 1284.58L4935.53 964.067ZM4748.4 643.756L4735.24 884.312H4673.97V937.305H4732.34L4716.73 1222.61L4706.01 1229.84L4613.52 923.067C4619.43 911.478 4624.79 900.972 4629.38 892.149L4744.78 644.712C4745.42 643.235 4748.4 642.24 4748.4 643.756ZM4236.44 1350.83C4215.95 1389.75 4202.82 1432.71 4197.29 1481.86L4429.92 1487.82L4236.44 1350.83ZM4335.57 1229.58C4298.74 1261.9 4268.91 1295.76 4246.33 1333.29L4470.52 1398.34L4474.89 1392.6L4335.57 1229.58ZM4473.33 1131.19C4430.02 1157.73 4391.54 1183.83 4358.06 1210.73L4539.71 1335.07L4542.6 1333.3L4473.33 1131.19ZM4592.55 964.067C4558.95 1029.15 4517.91 1104.47 4495.3 1117.93L4493.54 1118.97L4622.18 1287.15L4625.88 1284.58L4592.55 964.067Z" fill="#C8940C"/>
<defs>
<linearGradient id="paint0_linear_123_2" x1="2041" y1="384.5" x2="2041" y2="1993" gradientUnits="userSpaceOnUse">
<stop stop-color="#E8B329"/>
<stop offset="1" stop-color="#C89510"/>
</linearGradient>
<linearGradient id="paint1_linear_123_2" x1="4647.21" y1="1386.03" x2="4884.32" y2="1623.16" gradientUnits="userSpaceOnUse">
<stop stop-color="#FEDE00"/>
<stop offset="1" stop-color="#FFD000"/>
</linearGradient>
</defs>
</svg>
