<svg xmlns="http://www.w3.org/2000/svg" id="Layer_1" x="0" y="0" version="1.1" viewBox="0 0 48 48" xml:space="preserve"><linearGradient id="SVGID_1_" x1="24" x2="24" y1=".469" y2="24.17" gradientTransform="translate(0 16)" gradientUnits="userSpaceOnUse"><stop offset=".88" stop-color="#c71926"/><stop offset=".883" stop-color="#b51623"/><stop offset=".886" stop-color="#9c131f"/></linearGradient><path fill="url(#SVGID_1_)" d="M4,16.4h40V38c0,1.1-0.9,2-2,2H6c-1.1,0-2-0.9-2-2V16.4z"/><path fill="#eb6773" d="M44,17v-3.2c0-0.5-0.2-1-0.6-1.4l-1.8-1.8c-0.4-0.4-0.9-0.6-1.4-0.6H7.8c-0.5,0-1,0.2-1.4,0.6l-1.8,1.8	C4.2,12.8,4,13.3,4,13.8V17H44z"/><linearGradient id="SVGID_00000081629742707004713410000014383843041107636926_" x1="16" x2="32" y1="-7.5" y2="-7.5" gradientTransform="translate(0 16)" gradientUnits="userSpaceOnUse"><stop offset="0" stop-color="#5e5e5e"/><stop offset="1" stop-color="#545454"/></linearGradient><path fill="url(#SVGID_00000081629742707004713410000014383843041107636926_)" d="M30.5,7h-13C16.7,7,16,7.7,16,8.5V10h16	V8.5C32,7.7,31.3,7,30.5,7z"/><path d="M13,21.7h-2c-1,0-1.7-0.8-1.7-1.7v-4c0-1,0.8-1.7,1.7-1.7h2c1,0,1.7,0.8,1.7,1.7v4C14.7,21,14,21.7,13,21.7z" opacity=".054"/><path d="M13,21.5h-2c-0.8,0-1.5-0.7-1.5-1.5v-4c0-0.8,0.7-1.5,1.5-1.5h2c0.8,0,1.5,0.7,1.5,1.5v4	C14.5,20.8,13.8,21.5,13,21.5z" opacity=".109"/><path d="M37,21.7h-2c-1,0-1.7-0.8-1.7-1.7v-4c0-1,0.8-1.7,1.7-1.7h2c1,0,1.7,0.8,1.7,1.7v4C38.7,21,38,21.7,37,21.7z" opacity=".054"/><path d="M37,21.5h-2c-0.8,0-1.5-0.7-1.5-1.5v-4c0-0.8,0.7-1.5,1.5-1.5h2c0.8,0,1.5,0.7,1.5,1.5v4	C38.5,20.8,37.8,21.5,37,21.5z" opacity=".109"/><path fill="#fff" d="M11,15h2c0.6,0,1,0.4,1,1v4c0,0.6-0.4,1-1,1h-2c-0.6,0-1-0.4-1-1v-4C10,15.4,10.4,15,11,15z"/><path fill="#fff" d="M35,15h2c0.6,0,1,0.4,1,1v4c0,0.6-0.4,1-1,1h-2c-0.6,0-1-0.4-1-1v-4C34,15.4,34.4,15,35,15z"/></svg>